<?xml version="1.0" encoding="utf-8"?>
<!-- Generator: Adobe Illustrator 24.0.1, SVG Export Plug-In . SVG Version: 6.00 Build 0)  -->
<svg version="1.1" id="Capa_1" xmlns="http://www.w3.org/2000/svg" xmlns:xlink="http://www.w3.org/1999/xlink" x="0px" y="0px"
	 viewBox="0 0 50 40" style="enable-background:new 0 0 50 40;" xml:space="preserve">
<style type="text/css">
	.st0{fill:#EFF0F4;}
</style>
<path d="M3,0h44c1.7,0,3,1.3,3,3v34c0,1.7-1.3,3-3,3H3c-1.7,0-3-1.3-3-3V3C0,1.3,1.3,0,3,0z"/>
<path class="st0" d="M19.1,23.5c0,1.3-0.4,2.4-1.3,3.2C17,27.6,15.9,28,14.5,28h-4.4V12.3h4.5c1.3,0,2.4,0.4,3.2,1.3
	c0.8,0.8,1.3,1.9,1.3,3.2C19.1,16.8,19.1,23.5,19.1,23.5z M16.3,23.5v-6.7c0-0.6-0.2-1-0.6-1.3c-0.4-0.3-0.7-0.4-1.1-0.4h-1.7v10.1
	h1.7c0.4,0,0.8-0.1,1.1-0.4C16.1,24.5,16.3,24.1,16.3,23.5L16.3,23.5z M28.2,28h-5.9c-0.6,0-1-0.2-1.4-0.6c-0.4-0.4-0.6-0.8-0.6-1.4
	V14.2c0-0.6,0.2-1,0.6-1.4c0.4-0.4,0.8-0.6,1.4-0.6h5.9v2.8h-5.1v3.6h3.1v2.8h-3.1v3.6h5.1L28.2,28L28.2,28z M35.3,28
	c-0.9,0-1.7-0.7-2.2-2l-3.6-13.8h3.1l2.8,10.8l2.8-10.8h3.1L37.5,26C37,27.3,36.2,28,35.3,28z"/>
</svg>
